# xmcd
#
# Track frame offsets: 
#        150
#        10733
#        22972
#        32556
#        42316
#        54895
#        68039
#        81136
#        92458
#        101043
#
# Disc length: 1514 seconds
#
# Revision: 0
# Processed by: cddbd v1.5.2PL0 Copyright (c) Steve Scherf et al.
# Submitted via: ExactAudioCopy v1.3
#
DISCID=6905e80a
DTITLE=Porter Wagoner - Highway Headin' South
DYEAR=1974
DGENRE=Country
TTITLE0=Life Rides The Train
TTITLE1=Freida
TTITLE2=Highway Headin' South
TTITLE3=Lonelyville
TTITLE4=Last Chance For Happiness
TTITLE5=Not A Cloud In The Sky
TTITLE6=Holding Lonely Hands
TTITLE7=An Old Memory Gets In My Eyes
TTITLE8=Lonely Without You
TTITLE9=I'll Start Tomorrow
EXTD=
EXTT0=
EXTT1=
EXTT2=
EXTT3=
EXTT4=
EXTT5=
EXTT6=
EXTT7=
EXTT8=
EXTT9=
PLAYORDER=
